<svg width="1498" height="1373" viewBox="0 0 1498 1373" fill="none" xmlns="http://www.w3.org/2000/svg">
<g filter="url(#filter0_f_141_17067)">
<path d="M525.216 826.876C226.627 678.58 118.929 480.192 284.682 383.801C302.067 373.691 321.83 365.069 343.528 357.944C245.76 461.86 360.064 634.686 627.393 767.457C894.722 900.227 1224.19 947.803 1409.37 887.301C1397.86 899.486 1383.42 910.753 1366.04 920.863C1200.29 1017.25 823.805 975.172 525.216 826.876Z" fill="url(#paint0_linear_141_17067)"/>
<g filter="url(#filter1_f_141_17067)">
<path d="M536.569 820.274C237.98 671.978 118.929 480.192 284.682 383.801C302.067 373.691 321.83 365.069 343.528 357.944C245.76 461.86 348.711 641.288 616.04 774.059C883.369 906.829 1224.19 947.803 1409.37 887.301C1397.86 899.486 1383.42 910.753 1366.04 920.863C1200.29 1017.25 835.158 968.569 536.569 820.274Z" fill="url(#paint1_linear_141_17067)"/>
</g>
<g filter="url(#filter2_f_141_17067)">
<path d="M542.246 816.973C243.657 668.677 121.02 468.99 286.774 372.599C304.158 362.49 323.922 353.868 345.62 346.742C247.852 450.658 343.035 644.59 610.364 777.36C877.693 910.131 1237.94 938.563 1423.12 878.061C1411.61 890.247 1397.17 901.514 1379.78 911.623C1214.03 1008.01 840.835 965.269 542.246 816.973Z" fill="url(#paint2_linear_141_17067)"/>
</g>
<g filter="url(#filter3_f_141_17067)">
<path d="M542.246 816.973C243.657 668.677 121.02 468.99 286.774 372.599C304.158 362.49 323.922 353.868 345.62 346.742C247.852 450.658 343.035 644.59 610.364 777.36C877.693 910.131 1237.94 938.563 1423.12 878.061C1411.61 890.247 1397.17 901.514 1379.78 911.623C1214.03 1008.01 840.835 965.269 542.246 816.973Z" fill="url(#paint3_linear_141_17067)"/>
</g>
<g filter="url(#filter4_f_141_17067)">
<path d="M542.246 816.973C243.657 668.677 121.02 468.99 286.774 372.599C304.158 362.49 323.922 353.868 345.62 346.742C247.852 450.658 343.035 644.59 610.364 777.36C877.693 910.131 1237.94 938.563 1423.12 878.061C1411.61 890.247 1397.17 901.514 1379.78 911.623C1214.03 1008.01 840.835 965.269 542.246 816.973Z" fill="url(#paint4_linear_141_17067)"/>
</g>
<g filter="url(#filter5_f_141_17067)">
<path d="M554.364 789.33C255.775 641.034 121.02 468.99 286.774 372.599C304.158 362.49 323.922 353.868 345.62 346.742C247.852 450.658 317.037 651.569 591.916 788.089C936.328 959.143 1237.94 938.563 1423.12 878.061C1411.61 890.247 1397.17 901.514 1379.78 911.623C1214.03 1008.01 852.953 937.625 554.364 789.33Z" fill="url(#paint5_linear_141_17067)"/>
</g>
<g filter="url(#filter6_f_141_17067)">
<path d="M554.366 789.338C255.773 641.045 58.5313 459.774 224.28 363.38C241.664 353.271 365.317 352.638 387.015 345.512C289.252 449.43 317.035 651.579 591.918 788.097C936.334 959.149 1224.74 914.033 1409.92 853.529C1382.94 840.131 1464.09 910.653 1446.71 920.763C1280.96 1017.16 852.959 937.632 554.366 789.338Z" fill="url(#paint6_linear_141_17067)"/>
</g>
<g filter="url(#filter7_f_141_17067)">
<path d="M554.366 789.338C255.773 641.045 58.5313 459.774 224.28 363.38C241.664 353.271 365.317 352.638 387.015 345.512C289.252 449.43 317.035 651.579 591.918 788.097C936.334 959.149 1224.74 914.033 1409.92 853.529C1382.94 840.131 1464.09 910.653 1446.71 920.763C1280.96 1017.16 852.959 937.632 554.366 789.338Z" fill="url(#paint7_linear_141_17067)"/>
</g>
<g filter="url(#filter8_f_141_17067)">
<path d="M554.366 789.338C255.773 641.045 58.5313 459.774 224.28 363.38C241.664 353.271 365.317 352.638 387.015 345.512C289.252 449.43 317.035 651.579 591.918 788.097C936.334 959.149 1224.74 914.033 1409.92 853.529C1382.94 840.131 1464.09 910.653 1446.71 920.763C1280.96 1017.16 852.959 937.632 554.366 789.338Z" fill="url(#paint8_linear_141_17067)"/>
</g>
</g>
<defs>
<filter id="filter0_f_141_17067" x="-36.0601" y="145.512" width="1685.24" height="1027.12" filterUnits="userSpaceOnUse" color-interpolation-filters="sRGB">
<feFlood flood-opacity="0" result="BackgroundImageFix"/>
<feBlend mode="normal" in="SourceGraphic" in2="BackgroundImageFix" result="shape"/>
<feGaussianBlur stdDeviation="100" result="effect1_foregroundBlur_141_17067"/>
</filter>
<filter id="filter1_f_141_17067" x="192.511" y="340.951" width="1233.85" height="646.749" filterUnits="userSpaceOnUse" color-interpolation-filters="sRGB">
<feFlood flood-opacity="0" result="BackgroundImageFix"/>
<feBlend mode="normal" in="SourceGraphic" in2="BackgroundImageFix" result="shape"/>
<feGaussianBlur stdDeviation="8.4962" result="effect1_foregroundBlur_141_17067"/>
</filter>
<filter id="filter2_f_141_17067" x="161.424" y="295.765" width="1312.67" height="718.41" filterUnits="userSpaceOnUse" color-interpolation-filters="sRGB">
<feFlood flood-opacity="0" result="BackgroundImageFix"/>
<feBlend mode="normal" in="SourceGraphic" in2="BackgroundImageFix" result="shape"/>
<feGaussianBlur stdDeviation="25.4886" result="effect1_foregroundBlur_141_17067"/>
</filter>
<filter id="filter3_f_141_17067" x="138.768" y="273.108" width="1357.98" height="763.724" filterUnits="userSpaceOnUse" color-interpolation-filters="sRGB">
<feFlood flood-opacity="0" result="BackgroundImageFix"/>
<feBlend mode="normal" in="SourceGraphic" in2="BackgroundImageFix" result="shape"/>
<feGaussianBlur stdDeviation="36.8169" result="effect1_foregroundBlur_141_17067"/>
</filter>
<filter id="filter4_f_141_17067" x="138.768" y="273.108" width="1357.98" height="763.724" filterUnits="userSpaceOnUse" color-interpolation-filters="sRGB">
<feFlood flood-opacity="0" result="BackgroundImageFix"/>
<feBlend mode="normal" in="SourceGraphic" in2="BackgroundImageFix" result="shape"/>
<feGaussianBlur stdDeviation="36.8169" result="effect1_foregroundBlur_141_17067"/>
</filter>
<filter id="filter5_f_141_17067" x="39.4397" y="171.154" width="1559.26" height="960.278" filterUnits="userSpaceOnUse" color-interpolation-filters="sRGB">
<feFlood flood-opacity="0" result="BackgroundImageFix"/>
<feBlend mode="normal" in="SourceGraphic" in2="BackgroundImageFix" result="shape"/>
<feGaussianBlur stdDeviation="87.7941" result="effect1_foregroundBlur_141_17067"/>
</filter>
<filter id="filter6_f_141_17067" x="56.3214" y="237.894" width="1500.47" height="832.638" filterUnits="userSpaceOnUse" color-interpolation-filters="sRGB">
<feFlood flood-opacity="0" result="BackgroundImageFix"/>
<feBlend mode="normal" in="SourceGraphic" in2="BackgroundImageFix" result="shape"/>
<feGaussianBlur stdDeviation="53.8093" result="effect1_foregroundBlur_141_17067"/>
</filter>
<filter id="filter7_f_141_17067" x="-68.2896" y="113.283" width="1749.7" height="1081.86" filterUnits="userSpaceOnUse" color-interpolation-filters="sRGB">
<feFlood flood-opacity="0" result="BackgroundImageFix"/>
<feBlend mode="normal" in="SourceGraphic" in2="BackgroundImageFix" result="shape"/>
<feGaussianBlur stdDeviation="116.115" result="effect1_foregroundBlur_141_17067"/>
</filter>
<filter id="filter8_f_141_17067" x="-181.572" y="0" width="1976.26" height="1308.43" filterUnits="userSpaceOnUse" color-interpolation-filters="sRGB">
<feFlood flood-opacity="0" result="BackgroundImageFix"/>
<feBlend mode="normal" in="SourceGraphic" in2="BackgroundImageFix" result="shape"/>
<feGaussianBlur stdDeviation="172.756" result="effect1_foregroundBlur_141_17067"/>
</filter>
<linearGradient id="paint0_linear_141_17067" x1="1241.51" y1="993.28" x2="734.845" y2="122.017" gradientUnits="userSpaceOnUse">
<stop stop-color="#CFFF65"/>
<stop offset="1" stop-color="#86FF22"/>
</linearGradient>
<linearGradient id="paint1_linear_141_17067" x1="1247.19" y1="989.979" x2="740.521" y2="118.716" gradientUnits="userSpaceOnUse">
<stop stop-color="#CFFF65"/>
<stop offset="1" stop-color="#86FF22"/>
</linearGradient>
<linearGradient id="paint2_linear_141_17067" x1="1256.32" y1="983.421" x2="745.855" y2="105.629" gradientUnits="userSpaceOnUse">
<stop stop-color="#CFFF65"/>
<stop offset="1" stop-color="#86FF22"/>
</linearGradient>
<linearGradient id="paint3_linear_141_17067" x1="1256.32" y1="983.421" x2="745.855" y2="105.629" gradientUnits="userSpaceOnUse">
<stop stop-color="#CFFF65"/>
<stop offset="1" stop-color="#86FF22"/>
</linearGradient>
<linearGradient id="paint4_linear_141_17067" x1="1256.32" y1="983.421" x2="745.855" y2="105.629" gradientUnits="userSpaceOnUse">
<stop stop-color="#CFFF65"/>
<stop offset="1" stop-color="#86FF22"/>
</linearGradient>
<linearGradient id="paint5_linear_141_17067" x1="1271.93" y1="974.343" x2="761.466" y2="96.5508" gradientUnits="userSpaceOnUse">
<stop stop-color="#CFFF65"/>
<stop offset="1" stop-color="#86FF22"/>
</linearGradient>
<linearGradient id="paint6_linear_141_17067" x1="1324.85" y1="991.635" x2="773.664" y2="43.8778" gradientUnits="userSpaceOnUse">
<stop stop-color="#CFFF65"/>
<stop offset="1" stop-color="#86FF22"/>
</linearGradient>
<linearGradient id="paint7_linear_141_17067" x1="1324.85" y1="991.635" x2="773.664" y2="43.8778" gradientUnits="userSpaceOnUse">
<stop stop-color="#CFFF65"/>
<stop offset="1" stop-color="#86FF22"/>
</linearGradient>
<linearGradient id="paint8_linear_141_17067" x1="1324.85" y1="991.635" x2="773.664" y2="43.8778" gradientUnits="userSpaceOnUse">
<stop stop-color="#CFFF65"/>
<stop offset="1" stop-color="#86FF22"/>
</linearGradient>
</defs>
</svg>
