<svg width="1498" height="1028" viewBox="0 0 1498 1028" fill="none" xmlns="http://www.w3.org/2000/svg">
<g filter="url(#filter0_f_141_16866)">
<path d="M530.947 645.19C269.029 572.898 185.894 453.36 345.273 378.218C361.989 370.337 380.767 363.23 401.201 356.936C303.512 431.612 394.697 534.146 629.194 598.87C863.69 663.594 1161.78 668.505 1336.14 614.992C1324.64 623.752 1310.54 632.149 1293.82 640.03C1134.44 715.172 792.864 717.483 530.947 645.19Z" fill="url(#paint0_linear_141_16866)"/>
<g filter="url(#filter1_f_141_16866)">
<path d="M541.863 640.044C279.946 567.751 185.894 453.36 345.273 378.218C361.989 370.337 380.767 363.23 401.201 356.936C303.512 431.612 383.781 539.292 618.277 604.017C852.774 668.741 1161.78 668.505 1336.14 614.992C1324.64 623.752 1310.54 632.149 1293.82 640.03C1134.44 715.172 803.78 712.336 541.863 640.044Z" fill="url(#paint1_linear_141_16866)"/>
</g>
<g filter="url(#filter2_f_141_16866)">
<path d="M547.322 637.47C285.405 565.178 188.687 445.971 348.066 370.829C364.781 362.948 383.56 355.84 403.994 349.547C306.304 424.223 378.323 541.866 612.82 606.59C847.317 671.314 1175.09 661.469 1349.45 607.956C1337.96 616.717 1323.85 625.114 1307.13 632.994C1147.76 708.137 809.239 709.763 547.322 637.47Z" fill="url(#paint2_linear_141_16866)"/>
</g>
<g filter="url(#filter3_f_141_16866)">
<path d="M547.322 637.47C285.405 565.178 188.687 445.971 348.066 370.829C364.781 362.948 383.56 355.84 403.994 349.547C306.304 424.223 378.323 541.866 612.82 606.59C847.317 671.314 1175.09 661.469 1349.45 607.956C1337.96 616.717 1323.85 625.114 1307.13 632.994C1147.76 708.137 809.239 709.763 547.322 637.47Z" fill="url(#paint3_linear_141_16866)"/>
</g>
<g filter="url(#filter4_f_141_16866)">
<path d="M547.322 637.47C285.405 565.178 188.687 445.971 348.066 370.829C364.781 362.948 383.56 355.84 403.994 349.547C306.304 424.223 378.323 541.866 612.82 606.59C847.317 671.314 1175.09 661.469 1349.45 607.956C1337.96 616.717 1323.85 625.114 1307.13 632.994C1147.76 708.137 809.239 709.763 547.322 637.47Z" fill="url(#paint4_linear_141_16866)"/>
</g>
<g filter="url(#filter5_f_141_16866)">
<path d="M560.585 618.692C298.668 546.399 188.687 445.971 348.066 370.829C364.781 362.948 383.56 355.84 403.994 349.547C306.304 424.223 353.962 548.401 595.081 614.953C897.194 698.34 1175.09 661.469 1349.45 607.956C1337.96 616.717 1323.85 625.114 1307.13 632.994C1147.76 708.137 822.502 690.984 560.585 618.692Z" fill="url(#paint5_linear_141_16866)"/>
</g>
<g filter="url(#filter6_f_141_16866)">
<path d="M560.585 618.695C298.666 546.403 132.169 444.912 291.544 369.769C308.26 361.888 421.581 351.806 442.014 345.512C344.328 420.189 353.96 548.405 595.081 614.957C897.196 698.343 1164.92 646.679 1339.28 593.165C1315.62 586.634 1384.44 625.773 1367.73 633.654C1208.35 708.797 822.505 690.987 560.585 618.695Z" fill="url(#paint6_linear_141_16866)"/>
</g>
<g filter="url(#filter7_f_141_16866)">
<path d="M560.585 618.695C298.666 546.403 132.169 444.912 291.544 369.769C308.26 361.888 421.581 351.806 442.014 345.512C344.328 420.189 353.96 548.405 595.081 614.957C897.196 698.343 1164.92 646.679 1339.28 593.165C1315.62 586.634 1384.44 625.773 1367.73 633.654C1208.35 708.797 822.505 690.987 560.585 618.695Z" fill="url(#paint7_linear_141_16866)"/>
</g>
<g filter="url(#filter8_f_141_16866)">
<path d="M560.585 618.695C298.666 546.403 132.169 444.912 291.544 369.769C308.26 361.888 421.581 351.806 442.014 345.512C344.328 420.189 353.96 548.405 595.081 614.957C897.196 698.343 1164.92 646.679 1339.28 593.165C1315.62 586.634 1384.44 625.773 1367.73 633.654C1208.35 708.797 822.505 690.987 560.585 618.695Z" fill="url(#paint8_linear_141_16866)"/>
</g>
</g>
<defs>
<filter id="filter0_f_141_16866" x="29.1821" y="145.512" width="1541.19" height="752.421" filterUnits="userSpaceOnUse" color-interpolation-filters="sRGB">
<feFlood flood-opacity="0" result="BackgroundImageFix"/>
<feBlend mode="normal" in="SourceGraphic" in2="BackgroundImageFix" result="shape"/>
<feGaussianBlur stdDeviation="100" result="effect1_foregroundBlur_141_16866"/>
</filter>
<filter id="filter1_f_141_16866" x="250.21" y="339.943" width="1102.92" height="372.379" filterUnits="userSpaceOnUse" color-interpolation-filters="sRGB">
<feFlood flood-opacity="0" result="BackgroundImageFix"/>
<feBlend mode="normal" in="SourceGraphic" in2="BackgroundImageFix" result="shape"/>
<feGaussianBlur stdDeviation="8.4962" result="effect1_foregroundBlur_141_16866"/>
</filter>
<filter id="filter2_f_141_16866" x="219.703" y="298.569" width="1180.73" height="442.952" filterUnits="userSpaceOnUse" color-interpolation-filters="sRGB">
<feFlood flood-opacity="0" result="BackgroundImageFix"/>
<feBlend mode="normal" in="SourceGraphic" in2="BackgroundImageFix" result="shape"/>
<feGaussianBlur stdDeviation="25.4886" result="effect1_foregroundBlur_141_16866"/>
</filter>
<filter id="filter3_f_141_16866" x="197.047" y="275.913" width="1226.04" height="488.265" filterUnits="userSpaceOnUse" color-interpolation-filters="sRGB">
<feFlood flood-opacity="0" result="BackgroundImageFix"/>
<feBlend mode="normal" in="SourceGraphic" in2="BackgroundImageFix" result="shape"/>
<feGaussianBlur stdDeviation="36.8169" result="effect1_foregroundBlur_141_16866"/>
</filter>
<filter id="filter4_f_141_16866" x="197.047" y="275.913" width="1226.04" height="488.265" filterUnits="userSpaceOnUse" color-interpolation-filters="sRGB">
<feFlood flood-opacity="0" result="BackgroundImageFix"/>
<feBlend mode="normal" in="SourceGraphic" in2="BackgroundImageFix" result="shape"/>
<feGaussianBlur stdDeviation="36.8169" result="effect1_foregroundBlur_141_16866"/>
</filter>
<filter id="filter5_f_141_16866" x="98.3703" y="173.958" width="1426.67" height="683.384" filterUnits="userSpaceOnUse" color-interpolation-filters="sRGB">
<feFlood flood-opacity="0" result="BackgroundImageFix"/>
<feBlend mode="normal" in="SourceGraphic" in2="BackgroundImageFix" result="shape"/>
<feGaussianBlur stdDeviation="87.7941" result="effect1_foregroundBlur_141_16866"/>
</filter>
<filter id="filter6_f_141_16866" x="121.564" y="237.894" width="1356.43" height="551.864" filterUnits="userSpaceOnUse" color-interpolation-filters="sRGB">
<feFlood flood-opacity="0" result="BackgroundImageFix"/>
<feBlend mode="normal" in="SourceGraphic" in2="BackgroundImageFix" result="shape"/>
<feGaussianBlur stdDeviation="53.8093" result="effect1_foregroundBlur_141_16866"/>
</filter>
<filter id="filter7_f_141_16866" x="-3.04738" y="113.283" width="1605.65" height="801.086" filterUnits="userSpaceOnUse" color-interpolation-filters="sRGB">
<feFlood flood-opacity="0" result="BackgroundImageFix"/>
<feBlend mode="normal" in="SourceGraphic" in2="BackgroundImageFix" result="shape"/>
<feGaussianBlur stdDeviation="116.115" result="effect1_foregroundBlur_141_16866"/>
</filter>
<filter id="filter8_f_141_16866" x="-116.33" y="0" width="1832.22" height="1027.65" filterUnits="userSpaceOnUse" color-interpolation-filters="sRGB">
<feFlood flood-opacity="0" result="BackgroundImageFix"/>
<feBlend mode="normal" in="SourceGraphic" in2="BackgroundImageFix" result="shape"/>
<feGaussianBlur stdDeviation="172.756" result="effect1_foregroundBlur_141_16866"/>
</filter>
<linearGradient id="paint0_linear_141_16866" x1="1174.08" y1="696.483" x2="900.592" y2="116.402" gradientUnits="userSpaceOnUse">
<stop stop-color="#CFFF65"/>
<stop offset="1" stop-color="#86FF22"/>
</linearGradient>
<linearGradient id="paint1_linear_141_16866" x1="1179.54" y1="693.91" x2="906.051" y2="113.828" gradientUnits="userSpaceOnUse">
<stop stop-color="#CFFF65"/>
<stop offset="1" stop-color="#86FF22"/>
</linearGradient>
<linearGradient id="paint2_linear_141_16866" x1="1188.42" y1="688.965" x2="912.879" y2="104.536" gradientUnits="userSpaceOnUse">
<stop stop-color="#CFFF65"/>
<stop offset="1" stop-color="#86FF22"/>
</linearGradient>
<linearGradient id="paint3_linear_141_16866" x1="1188.42" y1="688.965" x2="912.879" y2="104.536" gradientUnits="userSpaceOnUse">
<stop stop-color="#CFFF65"/>
<stop offset="1" stop-color="#86FF22"/>
</linearGradient>
<linearGradient id="paint4_linear_141_16866" x1="1188.42" y1="688.965" x2="912.879" y2="104.536" gradientUnits="userSpaceOnUse">
<stop stop-color="#CFFF65"/>
<stop offset="1" stop-color="#86FF22"/>
</linearGradient>
<linearGradient id="paint5_linear_141_16866" x1="1203.43" y1="681.888" x2="927.889" y2="97.4597" gradientUnits="userSpaceOnUse">
<stop stop-color="#CFFF65"/>
<stop offset="1" stop-color="#86FF22"/>
</linearGradient>
<linearGradient id="paint6_linear_141_16866" x1="1250.55" y1="688.901" x2="953.036" y2="57.8875" gradientUnits="userSpaceOnUse">
<stop stop-color="#CFFF65"/>
<stop offset="1" stop-color="#86FF22"/>
</linearGradient>
<linearGradient id="paint7_linear_141_16866" x1="1250.55" y1="688.901" x2="953.036" y2="57.8875" gradientUnits="userSpaceOnUse">
<stop stop-color="#CFFF65"/>
<stop offset="1" stop-color="#86FF22"/>
</linearGradient>
<linearGradient id="paint8_linear_141_16866" x1="1250.55" y1="688.901" x2="953.036" y2="57.8875" gradientUnits="userSpaceOnUse">
<stop stop-color="#CFFF65"/>
<stop offset="1" stop-color="#86FF22"/>
</linearGradient>
</defs>
</svg>
