<svg width="1498" height="2567" viewBox="0 0 1498 2567" fill="none" xmlns="http://www.w3.org/2000/svg">
<path d="M48.9367 993.668C660.204 966.152 1164.84 1147.37 1175.97 1398.4C1177.14 1424.73 1172.84 1450.87 1163.53 1476.49C1064.67 1266.34 603.074 1123.78 55.8016 1148.41C-491.471 1173.05 -938.364 1356.51 -1018.46 1574.71C-1030 1550.03 -1036.6 1524.38 -1037.77 1498.05C-1048.9 1247.02 -562.331 1021.18 48.9367 993.668Z" fill="url(#paint0_linear_141_16840)"/>
<g filter="url(#filter0_f_141_16840)">
<path d="M49.6995 1010.86C660.967 983.346 1164.84 1147.37 1175.97 1398.4C1177.14 1424.73 1172.84 1450.87 1163.53 1476.49C1064.67 1266.34 602.312 1106.58 55.0389 1131.22C-492.234 1155.85 -938.364 1356.51 -1018.46 1574.71C-1030 1550.03 -1036.6 1524.38 -1037.77 1498.05C-1048.9 1247.02 -561.568 1038.38 49.6995 1010.86Z" fill="url(#paint1_linear_141_16840)"/>
</g>
<g filter="url(#filter1_f_141_16840)">
<path d="M50.0797 1019.46C661.347 991.943 1184.56 1163.71 1195.7 1414.74C1196.86 1441.07 1192.56 1467.21 1183.25 1492.83C1084.39 1282.68 601.929 1097.99 54.6563 1122.62C-492.616 1147.26 -934.994 1378.97 -1015.09 1597.17C-1026.63 1572.49 -1033.23 1546.84 -1034.4 1520.51C-1045.53 1269.48 -561.188 1046.97 50.0797 1019.46Z" fill="url(#paint2_linear_141_16840)"/>
</g>
<g filter="url(#filter2_f_141_16840)">
<path d="M50.0797 1019.46C661.347 991.943 1184.56 1163.71 1195.7 1414.74C1196.86 1441.07 1192.56 1467.21 1183.25 1492.83C1084.39 1282.68 601.929 1097.99 54.6563 1122.62C-492.616 1147.26 -934.994 1378.97 -1015.09 1597.17C-1026.63 1572.49 -1033.23 1546.84 -1034.4 1520.51C-1045.53 1269.48 -561.188 1046.97 50.0797 1019.46Z" fill="url(#paint3_linear_141_16840)"/>
</g>
<g filter="url(#filter3_f_141_16840)">
<path d="M50.0797 1019.46C661.347 991.943 1184.56 1163.71 1195.7 1414.74C1196.86 1441.07 1192.56 1467.21 1183.25 1492.83C1084.39 1282.68 601.929 1097.99 54.6563 1122.62C-492.616 1147.26 -934.994 1378.97 -1015.09 1597.17C-1026.63 1572.49 -1033.23 1546.84 -1034.4 1520.51C-1045.53 1269.48 -561.188 1046.97 50.0797 1019.46Z" fill="url(#paint4_linear_141_16840)"/>
</g>
<g filter="url(#filter4_f_141_16840)">
<path d="M91.2851 1064.98C702.552 1037.46 1184.56 1163.71 1195.7 1414.74C1196.86 1441.07 1192.56 1467.21 1183.25 1492.83C1084.39 1282.68 616.145 1069.35 53.4168 1094.68C-651.659 1126.42 -934.994 1378.97 -1015.09 1597.17C-1026.63 1572.49 -1033.23 1546.84 -1034.4 1520.51C-1045.53 1269.48 -519.982 1092.5 91.2851 1064.98Z" fill="url(#paint5_linear_141_16840)"/>
</g>
<g filter="url(#filter5_f_141_16840)">
<path d="M91.2774 1064.98C702.545 1037.46 1269.71 1129.19 1280.85 1380.21C1282.01 1406.54 1150.54 1499.79 1141.23 1525.4C1042.37 1315.25 616.138 1069.35 53.4095 1094.68C-651.666 1126.42 -872.727 1401.47 -952.815 1619.67C-897.59 1617.18 -1122.98 1584.8 -1124.15 1558.47C-1135.29 1307.44 -519.99 1092.5 91.2774 1064.98Z" fill="url(#paint6_linear_141_16840)"/>
</g>
<g filter="url(#filter6_f_141_16840)">
<path d="M91.2774 1064.98C702.545 1037.46 1269.71 1129.19 1280.85 1380.21C1282.01 1406.54 1150.54 1499.79 1141.23 1525.4C1042.37 1315.25 616.138 1069.35 53.4095 1094.68C-651.666 1126.42 -872.727 1401.47 -952.815 1619.67C-897.59 1617.18 -1122.98 1584.8 -1124.15 1558.47C-1135.29 1307.44 -519.99 1092.5 91.2774 1064.98Z" fill="url(#paint7_linear_141_16840)"/>
</g>
<g filter="url(#filter7_f_141_16840)">
<path d="M91.2774 1064.98C702.545 1037.46 1269.71 1129.19 1280.85 1380.21C1282.01 1406.54 1150.54 1499.79 1141.23 1525.4C1042.37 1315.25 616.138 1069.35 53.4095 1094.68C-651.666 1126.42 -872.727 1401.47 -952.815 1619.67C-897.59 1617.18 -1122.98 1584.8 -1124.15 1558.47C-1135.29 1307.44 -519.99 1092.5 91.2774 1064.98Z" fill="url(#paint8_linear_141_16840)"/>
</g>
<defs>
<filter id="filter0_f_141_16840" x="-1054.95" y="990.865" width="2248.1" height="600.837" filterUnits="userSpaceOnUse" color-interpolation-filters="sRGB">
<feFlood flood-opacity="0" result="BackgroundImageFix"/>
<feBlend mode="normal" in="SourceGraphic" in2="BackgroundImageFix" result="shape"/>
<feGaussianBlur stdDeviation="8.4962" result="effect1_foregroundBlur_141_16840"/>
</filter>
<filter id="filter1_f_141_16840" x="-1085.56" y="965.591" width="2332.42" height="682.556" filterUnits="userSpaceOnUse" color-interpolation-filters="sRGB">
<feFlood flood-opacity="0" result="BackgroundImageFix"/>
<feBlend mode="normal" in="SourceGraphic" in2="BackgroundImageFix" result="shape"/>
<feGaussianBlur stdDeviation="25.4886" result="effect1_foregroundBlur_141_16840"/>
</filter>
<filter id="filter2_f_141_16840" x="-1108.22" y="942.935" width="2377.74" height="727.869" filterUnits="userSpaceOnUse" color-interpolation-filters="sRGB">
<feFlood flood-opacity="0" result="BackgroundImageFix"/>
<feBlend mode="normal" in="SourceGraphic" in2="BackgroundImageFix" result="shape"/>
<feGaussianBlur stdDeviation="36.8169" result="effect1_foregroundBlur_141_16840"/>
</filter>
<filter id="filter3_f_141_16840" x="-1108.22" y="942.935" width="2377.74" height="727.869" filterUnits="userSpaceOnUse" color-interpolation-filters="sRGB">
<feFlood flood-opacity="0" result="BackgroundImageFix"/>
<feBlend mode="normal" in="SourceGraphic" in2="BackgroundImageFix" result="shape"/>
<feGaussianBlur stdDeviation="36.8169" result="effect1_foregroundBlur_141_16840"/>
</filter>
<filter id="filter4_f_141_16840" x="-1210.16" y="885.679" width="2581.63" height="887.079" filterUnits="userSpaceOnUse" color-interpolation-filters="sRGB">
<feFlood flood-opacity="0" result="BackgroundImageFix"/>
<feBlend mode="normal" in="SourceGraphic" in2="BackgroundImageFix" result="shape"/>
<feGaussianBlur stdDeviation="87.7941" result="effect1_foregroundBlur_141_16840"/>
</filter>
<filter id="filter5_f_141_16840" x="-1231.92" y="952.656" width="2620.39" height="774.632" filterUnits="userSpaceOnUse" color-interpolation-filters="sRGB">
<feFlood flood-opacity="0" result="BackgroundImageFix"/>
<feBlend mode="normal" in="SourceGraphic" in2="BackgroundImageFix" result="shape"/>
<feGaussianBlur stdDeviation="53.8093" result="effect1_foregroundBlur_141_16840"/>
</filter>
<filter id="filter6_f_141_16840" x="-1356.53" y="828.045" width="2869.61" height="1023.85" filterUnits="userSpaceOnUse" color-interpolation-filters="sRGB">
<feFlood flood-opacity="0" result="BackgroundImageFix"/>
<feBlend mode="normal" in="SourceGraphic" in2="BackgroundImageFix" result="shape"/>
<feGaussianBlur stdDeviation="116.115" result="effect1_foregroundBlur_141_16840"/>
</filter>
<filter id="filter7_f_141_16840" x="-1469.81" y="714.763" width="3096.18" height="1250.42" filterUnits="userSpaceOnUse" color-interpolation-filters="sRGB">
<feFlood flood-opacity="0" result="BackgroundImageFix"/>
<feBlend mode="normal" in="SourceGraphic" in2="BackgroundImageFix" result="shape"/>
<feGaussianBlur stdDeviation="172.756" result="effect1_foregroundBlur_141_16840"/>
</filter>
<linearGradient id="paint0_linear_141_16840" x1="-1046.13" y1="1309.46" x2="1167.67" y2="1211.25" gradientUnits="userSpaceOnUse">
<stop stop-color="#CFFF65"/>
<stop offset="1" stop-color="#86FF22"/>
</linearGradient>
<linearGradient id="paint1_linear_141_16840" x1="-1045.75" y1="1318.06" x2="1168.05" y2="1219.84" gradientUnits="userSpaceOnUse">
<stop stop-color="#CFFF65"/>
<stop offset="1" stop-color="#86FF22"/>
</linearGradient>
<linearGradient id="paint2_linear_141_16840" x1="-1042.69" y1="1333.53" x2="1187.7" y2="1234.58" gradientUnits="userSpaceOnUse">
<stop stop-color="#CFFF65"/>
<stop offset="1" stop-color="#86FF22"/>
</linearGradient>
<linearGradient id="paint3_linear_141_16840" x1="-1042.69" y1="1333.53" x2="1187.7" y2="1234.58" gradientUnits="userSpaceOnUse">
<stop stop-color="#CFFF65"/>
<stop offset="1" stop-color="#86FF22"/>
</linearGradient>
<linearGradient id="paint4_linear_141_16840" x1="-1042.69" y1="1333.53" x2="1187.7" y2="1234.58" gradientUnits="userSpaceOnUse">
<stop stop-color="#CFFF65"/>
<stop offset="1" stop-color="#86FF22"/>
</linearGradient>
<linearGradient id="paint5_linear_141_16840" x1="-1041.64" y1="1357.17" x2="1188.75" y2="1258.23" gradientUnits="userSpaceOnUse">
<stop stop-color="#CFFF65"/>
<stop offset="1" stop-color="#86FF22"/>
</linearGradient>
<linearGradient id="paint6_linear_141_16840" x1="-1132.34" y1="1373.91" x2="1275.82" y2="1267.04" gradientUnits="userSpaceOnUse">
<stop stop-color="#CFFF65"/>
<stop offset="1" stop-color="#86FF22"/>
</linearGradient>
<linearGradient id="paint7_linear_141_16840" x1="-1132.34" y1="1373.91" x2="1275.82" y2="1267.04" gradientUnits="userSpaceOnUse">
<stop stop-color="#CFFF65"/>
<stop offset="1" stop-color="#86FF22"/>
</linearGradient>
<linearGradient id="paint8_linear_141_16840" x1="-1132.34" y1="1373.91" x2="1275.82" y2="1267.04" gradientUnits="userSpaceOnUse">
<stop stop-color="#CFFF65"/>
<stop offset="1" stop-color="#86FF22"/>
</linearGradient>
</defs>
</svg>
