<svg width="1280" height="1480" viewBox="0 0 1280 1480" fill="none" xmlns="http://www.w3.org/2000/svg">
<path d="M613.84 728.534C120.673 684.531 -300.62 508.38 -327.068 335.123C-329.842 316.952 -328.173 299.47 -322.408 282.866C-227.752 437.115 156 582.336 597.536 621.733C1039.07 661.13 1388.28 581.308 1438 439.941C1449.06 458.047 1456.19 476.314 1458.96 494.485C1485.41 667.741 1107.01 772.538 613.84 728.534Z" fill="url(#paint0_linear_149_16339)"/>
<g filter="url(#filter0_f_149_16339)">
<path d="M612.028 716.668C118.862 672.664 -300.62 508.38 -327.068 335.123C-329.842 316.952 -328.173 299.47 -322.408 282.866C-227.752 437.115 157.812 594.203 599.347 633.6C1040.88 672.996 1388.28 581.308 1438 439.941C1449.06 458.047 1456.19 476.314 1458.96 494.485C1485.41 667.741 1105.19 760.671 612.028 716.668Z" fill="url(#paint1_linear_149_16339)"/>
</g>
<g filter="url(#filter1_f_149_16339)">
<path d="M611.122 710.732C117.956 666.729 -317.729 495.146 -344.178 321.89C-346.952 303.718 -345.282 286.236 -339.518 269.632C-244.861 423.881 158.717 600.134 600.253 639.531C1041.79 678.928 1383.99 565.56 1433.71 424.193C1444.77 442.299 1451.9 460.566 1454.67 478.737C1481.12 651.994 1104.29 754.736 611.122 710.732Z" fill="url(#paint2_linear_149_16339)"/>
</g>
<g filter="url(#filter2_f_149_16339)">
<path d="M611.122 710.732C117.956 666.729 -317.729 495.146 -344.178 321.89C-346.952 303.718 -345.282 286.236 -339.518 269.632C-244.861 423.881 158.717 600.134 600.253 639.531C1041.79 678.928 1383.99 565.56 1433.71 424.193C1444.77 442.299 1451.9 460.566 1454.67 478.737C1481.12 651.994 1104.29 754.736 611.122 710.732Z" fill="url(#paint3_linear_149_16339)"/>
</g>
<g filter="url(#filter3_f_149_16339)">
<path d="M611.122 710.732C117.956 666.729 -317.729 495.146 -344.178 321.89C-346.952 303.718 -345.282 286.236 -339.518 269.632C-244.861 423.881 158.717 600.134 600.253 639.531C1041.79 678.928 1383.99 565.56 1433.71 424.193C1444.77 442.299 1451.9 460.566 1454.67 478.737C1481.12 651.994 1104.29 754.736 611.122 710.732Z" fill="url(#paint4_linear_149_16339)"/>
</g>
<g filter="url(#filter4_f_149_16339)">
<path d="M574.589 675.283C81.4225 631.279 -317.729 495.146 -344.178 321.89C-346.952 303.718 -345.282 286.236 -339.518 269.632C-244.861 423.881 149.192 618.305 603.197 658.815C1172.05 709.571 1383.99 565.56 1433.71 424.193C1444.77 442.299 1451.9 460.566 1454.67 478.737C1481.12 651.994 1067.75 719.287 574.589 675.283Z" fill="url(#paint5_linear_149_16339)"/>
</g>
<g filter="url(#filter5_f_149_16339)">
<path d="M574.563 675.272C81.3963 631.263 -384.32 510.036 -410.756 336.781C-413.529 318.61 -313.518 268.204 -307.752 251.599C-213.106 405.848 149.167 618.29 603.173 658.804C1172.02 709.566 1331.99 543.727 1381.71 402.361C1337.16 398.385 1521.95 443.773 1524.73 461.944C1551.16 635.199 1067.73 719.28 574.563 675.272Z" fill="url(#paint6_linear_149_16339)"/>
</g>
<g filter="url(#filter6_f_149_16339)">
<path d="M574.563 675.272C81.3963 631.263 -384.32 510.036 -410.756 336.781C-413.529 318.61 -313.518 268.204 -307.752 251.599C-213.106 405.848 149.167 618.29 603.173 658.804C1172.02 709.566 1331.99 543.727 1381.71 402.361C1337.16 398.385 1521.95 443.773 1524.73 461.944C1551.16 635.199 1067.73 719.28 574.563 675.272Z" fill="url(#paint7_linear_149_16339)"/>
</g>
<g filter="url(#filter7_f_149_16339)">
<path d="M574.563 675.272C81.3963 631.263 -384.32 510.036 -410.756 336.781C-413.529 318.61 -313.518 268.204 -307.752 251.599C-213.106 405.848 149.167 618.29 603.173 658.804C1172.02 709.566 1331.99 543.727 1381.71 402.361C1337.16 398.385 1521.95 443.773 1524.73 461.944C1551.16 635.199 1067.73 719.28 574.563 675.272Z" fill="url(#paint8_linear_149_16339)"/>
</g>
<defs>
<filter id="filter0_f_149_16339" x="-342.902" y="268.341" width="1817.69" height="473.703" filterUnits="userSpaceOnUse" color-interpolation-filters="sRGB">
<feFlood flood-opacity="0" result="BackgroundImageFix"/>
<feBlend mode="normal" in="SourceGraphic" in2="BackgroundImageFix" result="shape"/>
<feGaussianBlur stdDeviation="7.26216" result="effect1_foregroundBlur_149_16339"/>
</filter>
<filter id="filter1_f_149_16339" x="-389.06" y="226.059" width="1888.62" height="538.416" filterUnits="userSpaceOnUse" color-interpolation-filters="sRGB">
<feFlood flood-opacity="0" result="BackgroundImageFix"/>
<feBlend mode="normal" in="SourceGraphic" in2="BackgroundImageFix" result="shape"/>
<feGaussianBlur stdDeviation="21.7865" result="effect1_foregroundBlur_149_16339"/>
</filter>
<filter id="filter2_f_149_16339" x="-408.426" y="206.693" width="1927.35" height="577.147" filterUnits="userSpaceOnUse" color-interpolation-filters="sRGB">
<feFlood flood-opacity="0" result="BackgroundImageFix"/>
<feBlend mode="normal" in="SourceGraphic" in2="BackgroundImageFix" result="shape"/>
<feGaussianBlur stdDeviation="31.4693" result="effect1_foregroundBlur_149_16339"/>
</filter>
<filter id="filter3_f_149_16339" x="-408.426" y="206.693" width="1927.35" height="577.147" filterUnits="userSpaceOnUse" color-interpolation-filters="sRGB">
<feFlood flood-opacity="0" result="BackgroundImageFix"/>
<feBlend mode="normal" in="SourceGraphic" in2="BackgroundImageFix" result="shape"/>
<feGaussianBlur stdDeviation="31.4693" result="effect1_foregroundBlur_149_16339"/>
</filter>
<filter id="filter4_f_149_16339" x="-495.572" y="119.547" width="2101.53" height="718.91" filterUnits="userSpaceOnUse" color-interpolation-filters="sRGB">
<feFlood flood-opacity="0" result="BackgroundImageFix"/>
<feBlend mode="normal" in="SourceGraphic" in2="BackgroundImageFix" result="shape"/>
<feGaussianBlur stdDeviation="75.0423" result="effect1_foregroundBlur_149_16339"/>
</filter>
<filter id="filter5_f_149_16339" x="-502.8" y="159.612" width="2120.55" height="619.193" filterUnits="userSpaceOnUse" color-interpolation-filters="sRGB">
<feFlood flood-opacity="0" result="BackgroundImageFix"/>
<feBlend mode="normal" in="SourceGraphic" in2="BackgroundImageFix" result="shape"/>
<feGaussianBlur stdDeviation="45.9937" result="effect1_foregroundBlur_149_16339"/>
</filter>
<filter id="filter6_f_149_16339" x="-609.312" y="53.1005" width="2333.57" height="832.216" filterUnits="userSpaceOnUse" color-interpolation-filters="sRGB">
<feFlood flood-opacity="0" result="BackgroundImageFix"/>
<feBlend mode="normal" in="SourceGraphic" in2="BackgroundImageFix" result="shape"/>
<feGaussianBlur stdDeviation="99.2495" result="effect1_foregroundBlur_149_16339"/>
</filter>
<filter id="filter7_f_149_16339" x="-706.141" y="-43.7282" width="2527.23" height="1025.87" filterUnits="userSpaceOnUse" color-interpolation-filters="sRGB">
<feFlood flood-opacity="0" result="BackgroundImageFix"/>
<feBlend mode="normal" in="SourceGraphic" in2="BackgroundImageFix" result="shape"/>
<feGaussianBlur stdDeviation="147.664" result="effect1_foregroundBlur_149_16339"/>
</filter>
<linearGradient id="paint0_linear_149_16339" x1="1478.83" y1="624.65" x2="-242.751" y2="887.459" gradientUnits="userSpaceOnUse">
<stop stop-color="#CFFF65"/>
<stop offset="1" stop-color="#86FF22"/>
</linearGradient>
<linearGradient id="paint1_linear_149_16339" x1="1477.93" y1="618.717" x2="-243.657" y2="881.526" gradientUnits="userSpaceOnUse">
<stop stop-color="#CFFF65"/>
<stop offset="1" stop-color="#86FF22"/>
</linearGradient>
<linearGradient id="paint2_linear_149_16339" x1="1474.37" y1="607.79" x2="-260.113" y2="872.569" gradientUnits="userSpaceOnUse">
<stop stop-color="#CFFF65"/>
<stop offset="1" stop-color="#86FF22"/>
</linearGradient>
<linearGradient id="paint3_linear_149_16339" x1="1474.37" y1="607.79" x2="-260.113" y2="872.569" gradientUnits="userSpaceOnUse">
<stop stop-color="#CFFF65"/>
<stop offset="1" stop-color="#86FF22"/>
</linearGradient>
<linearGradient id="paint4_linear_149_16339" x1="1474.37" y1="607.79" x2="-260.113" y2="872.569" gradientUnits="userSpaceOnUse">
<stop stop-color="#CFFF65"/>
<stop offset="1" stop-color="#86FF22"/>
</linearGradient>
<linearGradient id="paint5_linear_149_16339" x1="1471.88" y1="591.473" x2="-262.604" y2="856.252" gradientUnits="userSpaceOnUse">
<stop stop-color="#CFFF65"/>
<stop offset="1" stop-color="#86FF22"/>
</linearGradient>
<linearGradient id="paint6_linear_149_16339" x1="1544.16" y1="589.326" x2="-328.619" y2="875.085" gradientUnits="userSpaceOnUse">
<stop stop-color="#CFFF65"/>
<stop offset="1" stop-color="#86FF22"/>
</linearGradient>
<linearGradient id="paint7_linear_149_16339" x1="1544.16" y1="589.326" x2="-328.619" y2="875.085" gradientUnits="userSpaceOnUse">
<stop stop-color="#CFFF65"/>
<stop offset="1" stop-color="#86FF22"/>
</linearGradient>
<linearGradient id="paint8_linear_149_16339" x1="1544.16" y1="589.326" x2="-328.619" y2="875.085" gradientUnits="userSpaceOnUse">
<stop stop-color="#CFFF65"/>
<stop offset="1" stop-color="#86FF22"/>
</linearGradient>
</defs>
</svg>
