<svg width="1498" height="1028" viewBox="0 0 1498 1028" fill="none" xmlns="http://www.w3.org/2000/svg">
<g filter="url(#filter0_f_141_16866)">
<path d="M428.193 645.19C166.275 572.898 83.1406 453.36 242.519 378.218C259.235 370.337 278.013 363.23 298.447 356.936C200.758 431.612 291.943 534.146 526.44 598.87C760.936 663.594 1059.02 668.505 1233.39 614.992C1221.89 623.752 1207.78 632.149 1191.07 640.03C1031.69 715.172 690.11 717.483 428.193 645.19Z" fill="url(#paint0_linear_141_16866)"/>
<g filter="url(#filter1_f_141_16866)">
<path d="M439.109 640.044C177.192 567.751 83.1406 453.36 242.519 378.218C259.235 370.337 278.013 363.23 298.447 356.936C200.758 431.612 281.027 539.292 515.523 604.017C750.02 668.741 1059.02 668.505 1233.39 614.992C1221.89 623.752 1207.78 632.149 1191.07 640.03C1031.69 715.172 701.026 712.336 439.109 640.044Z" fill="url(#paint1_linear_141_16866)"/>
</g>
<g filter="url(#filter2_f_141_16866)">
<path d="M444.568 637.47C182.651 565.178 85.9333 445.971 245.312 370.829C262.027 362.948 280.806 355.84 301.24 349.547C203.55 424.223 275.57 541.866 510.066 606.59C744.563 671.314 1072.33 661.469 1246.7 607.956C1235.2 616.717 1221.1 625.114 1204.38 632.994C1045 708.137 706.485 709.763 444.568 637.47Z" fill="url(#paint2_linear_141_16866)"/>
</g>
<g filter="url(#filter3_f_141_16866)">
<path d="M444.568 637.47C182.651 565.178 85.9333 445.971 245.312 370.829C262.027 362.948 280.806 355.84 301.24 349.547C203.55 424.223 275.57 541.866 510.066 606.59C744.563 671.314 1072.33 661.469 1246.7 607.956C1235.2 616.717 1221.1 625.114 1204.38 632.994C1045 708.137 706.485 709.763 444.568 637.47Z" fill="url(#paint3_linear_141_16866)"/>
</g>
<g filter="url(#filter4_f_141_16866)">
<path d="M444.568 637.47C182.651 565.178 85.9333 445.971 245.312 370.829C262.027 362.948 280.806 355.84 301.24 349.547C203.55 424.223 275.57 541.866 510.066 606.59C744.563 671.314 1072.33 661.469 1246.7 607.956C1235.2 616.717 1221.1 625.114 1204.38 632.994C1045 708.137 706.485 709.763 444.568 637.47Z" fill="url(#paint4_linear_141_16866)"/>
</g>
<g filter="url(#filter5_f_141_16866)">
<path d="M457.831 618.692C195.914 546.399 85.9333 445.971 245.312 370.829C262.027 362.948 280.806 355.84 301.24 349.547C203.55 424.223 251.208 548.401 492.327 614.953C794.44 698.34 1072.33 661.469 1246.7 607.956C1235.2 616.717 1221.1 625.114 1204.38 632.994C1045 708.137 719.748 690.984 457.831 618.692Z" fill="url(#paint5_linear_141_16866)"/>
</g>
<g filter="url(#filter6_f_141_16866)">
<path d="M457.831 618.695C195.912 546.403 29.4146 444.912 188.791 369.769C205.506 361.888 318.827 351.806 339.261 345.512C241.574 420.189 251.206 548.405 492.327 614.957C794.442 698.343 1062.17 646.679 1236.53 593.165C1212.87 586.634 1281.69 625.773 1264.97 633.654C1105.6 708.797 719.751 690.987 457.831 618.695Z" fill="url(#paint6_linear_141_16866)"/>
</g>
<g filter="url(#filter7_f_141_16866)">
<path d="M457.831 618.695C195.912 546.403 29.4146 444.912 188.791 369.769C205.506 361.888 318.827 351.806 339.261 345.512C241.574 420.189 251.206 548.405 492.327 614.957C794.442 698.343 1062.17 646.679 1236.53 593.165C1212.87 586.634 1281.69 625.773 1264.97 633.654C1105.6 708.797 719.751 690.987 457.831 618.695Z" fill="url(#paint7_linear_141_16866)"/>
</g>
<g filter="url(#filter8_f_141_16866)">
<path d="M457.831 618.695C195.912 546.403 29.4146 444.912 188.791 369.769C205.506 361.888 318.827 351.806 339.261 345.512C241.574 420.189 251.206 548.405 492.327 614.957C794.442 698.343 1062.17 646.679 1236.53 593.165C1212.87 586.634 1281.69 625.773 1264.97 633.654C1105.6 708.797 719.751 690.987 457.831 618.695Z" fill="url(#paint8_linear_141_16866)"/>
</g>
</g>
<defs>
<filter id="filter0_f_141_16866" x="-73.5718" y="145.512" width="1541.19" height="752.421" filterUnits="userSpaceOnUse" color-interpolation-filters="sRGB">
<feFlood flood-opacity="0" result="BackgroundImageFix"/>
<feBlend mode="normal" in="SourceGraphic" in2="BackgroundImageFix" result="shape"/>
<feGaussianBlur stdDeviation="100" result="effect1_foregroundBlur_141_16866"/>
</filter>
<filter id="filter1_f_141_16866" x="147.456" y="339.943" width="1102.92" height="372.379" filterUnits="userSpaceOnUse" color-interpolation-filters="sRGB">
<feFlood flood-opacity="0" result="BackgroundImageFix"/>
<feBlend mode="normal" in="SourceGraphic" in2="BackgroundImageFix" result="shape"/>
<feGaussianBlur stdDeviation="8.4962" result="effect1_foregroundBlur_141_16866"/>
</filter>
<filter id="filter2_f_141_16866" x="116.95" y="298.569" width="1180.73" height="442.952" filterUnits="userSpaceOnUse" color-interpolation-filters="sRGB">
<feFlood flood-opacity="0" result="BackgroundImageFix"/>
<feBlend mode="normal" in="SourceGraphic" in2="BackgroundImageFix" result="shape"/>
<feGaussianBlur stdDeviation="25.4886" result="effect1_foregroundBlur_141_16866"/>
</filter>
<filter id="filter3_f_141_16866" x="94.293" y="275.913" width="1226.04" height="488.265" filterUnits="userSpaceOnUse" color-interpolation-filters="sRGB">
<feFlood flood-opacity="0" result="BackgroundImageFix"/>
<feBlend mode="normal" in="SourceGraphic" in2="BackgroundImageFix" result="shape"/>
<feGaussianBlur stdDeviation="36.8169" result="effect1_foregroundBlur_141_16866"/>
</filter>
<filter id="filter4_f_141_16866" x="94.293" y="275.913" width="1226.04" height="488.265" filterUnits="userSpaceOnUse" color-interpolation-filters="sRGB">
<feFlood flood-opacity="0" result="BackgroundImageFix"/>
<feBlend mode="normal" in="SourceGraphic" in2="BackgroundImageFix" result="shape"/>
<feGaussianBlur stdDeviation="36.8169" result="effect1_foregroundBlur_141_16866"/>
</filter>
<filter id="filter5_f_141_16866" x="-4.38359" y="173.958" width="1426.67" height="683.384" filterUnits="userSpaceOnUse" color-interpolation-filters="sRGB">
<feFlood flood-opacity="0" result="BackgroundImageFix"/>
<feBlend mode="normal" in="SourceGraphic" in2="BackgroundImageFix" result="shape"/>
<feGaussianBlur stdDeviation="87.7941" result="effect1_foregroundBlur_141_16866"/>
</filter>
<filter id="filter6_f_141_16866" x="18.8097" y="237.894" width="1356.43" height="551.864" filterUnits="userSpaceOnUse" color-interpolation-filters="sRGB">
<feFlood flood-opacity="0" result="BackgroundImageFix"/>
<feBlend mode="normal" in="SourceGraphic" in2="BackgroundImageFix" result="shape"/>
<feGaussianBlur stdDeviation="53.8093" result="effect1_foregroundBlur_141_16866"/>
</filter>
<filter id="filter7_f_141_16866" x="-105.801" y="113.283" width="1605.65" height="801.086" filterUnits="userSpaceOnUse" color-interpolation-filters="sRGB">
<feFlood flood-opacity="0" result="BackgroundImageFix"/>
<feBlend mode="normal" in="SourceGraphic" in2="BackgroundImageFix" result="shape"/>
<feGaussianBlur stdDeviation="116.115" result="effect1_foregroundBlur_141_16866"/>
</filter>
<filter id="filter8_f_141_16866" x="-219.084" y="0" width="1832.22" height="1027.65" filterUnits="userSpaceOnUse" color-interpolation-filters="sRGB">
<feFlood flood-opacity="0" result="BackgroundImageFix"/>
<feBlend mode="normal" in="SourceGraphic" in2="BackgroundImageFix" result="shape"/>
<feGaussianBlur stdDeviation="172.756" result="effect1_foregroundBlur_141_16866"/>
</filter>
<linearGradient id="paint0_linear_141_16866" x1="1071.33" y1="696.483" x2="797.839" y2="116.402" gradientUnits="userSpaceOnUse">
<stop stop-color="#CFFF65"/>
<stop offset="1" stop-color="#86FF22"/>
</linearGradient>
<linearGradient id="paint1_linear_141_16866" x1="1076.79" y1="693.91" x2="803.297" y2="113.828" gradientUnits="userSpaceOnUse">
<stop stop-color="#CFFF65"/>
<stop offset="1" stop-color="#86FF22"/>
</linearGradient>
<linearGradient id="paint2_linear_141_16866" x1="1085.67" y1="688.965" x2="810.125" y2="104.536" gradientUnits="userSpaceOnUse">
<stop stop-color="#CFFF65"/>
<stop offset="1" stop-color="#86FF22"/>
</linearGradient>
<linearGradient id="paint3_linear_141_16866" x1="1085.67" y1="688.965" x2="810.125" y2="104.536" gradientUnits="userSpaceOnUse">
<stop stop-color="#CFFF65"/>
<stop offset="1" stop-color="#86FF22"/>
</linearGradient>
<linearGradient id="paint4_linear_141_16866" x1="1085.67" y1="688.965" x2="810.125" y2="104.536" gradientUnits="userSpaceOnUse">
<stop stop-color="#CFFF65"/>
<stop offset="1" stop-color="#86FF22"/>
</linearGradient>
<linearGradient id="paint5_linear_141_16866" x1="1100.68" y1="681.888" x2="825.135" y2="97.4597" gradientUnits="userSpaceOnUse">
<stop stop-color="#CFFF65"/>
<stop offset="1" stop-color="#86FF22"/>
</linearGradient>
<linearGradient id="paint6_linear_141_16866" x1="1147.79" y1="688.901" x2="850.282" y2="57.8875" gradientUnits="userSpaceOnUse">
<stop stop-color="#CFFF65"/>
<stop offset="1" stop-color="#86FF22"/>
</linearGradient>
<linearGradient id="paint7_linear_141_16866" x1="1147.79" y1="688.901" x2="850.282" y2="57.8875" gradientUnits="userSpaceOnUse">
<stop stop-color="#CFFF65"/>
<stop offset="1" stop-color="#86FF22"/>
</linearGradient>
<linearGradient id="paint8_linear_141_16866" x1="1147.79" y1="688.901" x2="850.282" y2="57.8875" gradientUnits="userSpaceOnUse">
<stop stop-color="#CFFF65"/>
<stop offset="1" stop-color="#86FF22"/>
</linearGradient>
</defs>
</svg>
