<svg width="1280" height="1234" viewBox="0 0 1280 1234" fill="none" xmlns="http://www.w3.org/2000/svg">
<path d="M540.964 743.688C343.931 606.073 241.25 430.186 311.636 350.866C319.019 342.547 328.037 335.591 338.45 329.994C307.2 417.783 407.948 571.584 584.353 694.793C760.758 818.001 952.847 868.729 1041.78 821.226C1038.09 831.52 1032.58 840.93 1025.2 849.249C954.815 928.569 737.996 881.304 540.964 743.688Z" fill="url(#paint0_linear_379_15026)"/>
<g filter="url(#filter0_f_379_15026)">
<path d="M545.785 738.256C348.752 600.64 241.25 430.186 311.636 350.866C319.019 342.547 328.037 335.591 338.45 329.994C307.2 417.783 403.127 577.017 579.532 700.226C755.937 823.434 952.847 868.729 1041.78 821.226C1038.09 831.52 1032.58 840.93 1025.2 849.249C954.815 928.569 742.818 875.871 545.785 738.256Z" fill="url(#paint1_linear_379_15026)"/>
</g>
<g filter="url(#filter1_f_379_15026)">
<path d="M548.194 735.539C351.162 597.924 239.958 420.484 310.345 341.165C317.727 332.846 326.746 325.89 337.158 320.292C305.909 408.082 400.715 579.734 577.12 702.942C753.525 826.15 958.41 861.065 1047.34 813.562C1043.65 823.855 1038.15 833.266 1030.76 841.585C960.378 920.904 745.227 873.155 548.194 735.539Z" fill="url(#paint2_linear_379_15026)"/>
</g>
<g filter="url(#filter2_f_379_15026)">
<path d="M548.194 735.539C351.162 597.924 239.958 420.484 310.345 341.165C317.727 332.846 326.746 325.89 337.158 320.292C305.909 408.082 400.715 579.734 577.12 702.942C753.525 826.15 958.41 861.065 1047.34 813.562C1043.65 823.855 1038.15 833.266 1030.76 841.585C960.378 920.904 745.227 873.155 548.194 735.539Z" fill="url(#paint3_linear_379_15026)"/>
</g>
<g filter="url(#filter3_f_379_15026)">
<path d="M548.194 735.539C351.162 597.924 239.958 420.484 310.345 341.165C317.727 332.846 326.746 325.89 337.158 320.292C305.909 408.082 400.715 579.734 577.12 702.942C753.525 826.15 958.41 861.065 1047.34 813.562C1043.65 823.855 1038.15 833.266 1030.76 841.585C960.378 920.904 745.227 873.155 548.194 735.539Z" fill="url(#paint4_linear_379_15026)"/>
</g>
<g filter="url(#filter4_f_379_15026)">
<path d="M548.846 711.794C351.814 574.179 239.958 420.484 310.345 341.165C317.727 332.846 326.746 325.89 337.158 320.292C305.909 408.082 387.899 585.083 569.286 711.77C796.557 870.505 958.41 861.065 1047.34 813.562C1043.65 823.855 1038.15 833.266 1030.76 841.585C960.378 920.904 745.879 849.41 548.846 711.794Z" fill="url(#paint5_linear_379_15026)"/>
</g>
<g filter="url(#filter5_f_379_15026)">
<path d="M548.846 711.792C351.814 574.176 203.485 410.682 273.873 331.363C281.255 323.044 349.316 325.976 359.728 320.378C328.478 408.167 387.899 585.08 569.286 711.768C796.556 870.504 945.78 839.318 1034.71 791.815C1016.91 779.382 1077.05 843.113 1069.67 851.432C999.282 930.751 745.878 849.408 548.846 711.792Z" fill="url(#paint6_linear_379_15026)"/>
</g>
<g filter="url(#filter6_f_379_15026)">
<path d="M548.846 711.792C351.814 574.176 203.485 410.682 273.873 331.363C281.255 323.044 349.316 325.976 359.728 320.378C328.478 408.167 387.899 585.08 569.286 711.768C796.556 870.504 945.78 839.318 1034.71 791.815C1016.91 779.382 1077.05 843.113 1069.67 851.432C999.282 930.751 745.878 849.408 548.846 711.792Z" fill="url(#paint7_linear_379_15026)"/>
</g>
<g filter="url(#filter7_f_379_15026)">
<path d="M548.846 711.792C351.814 574.176 203.485 410.682 273.873 331.363C281.255 323.044 349.316 325.976 359.728 320.378C328.478 408.167 387.899 585.08 569.286 711.768C796.556 870.504 945.78 839.318 1034.71 791.815C1016.91 779.382 1077.05 843.113 1069.67 851.432C999.282 930.751 745.878 849.408 548.846 711.792Z" fill="url(#paint8_linear_379_15026)"/>
</g>
<path d="M211.6 647.243C217.599 483.268 265.885 338.028 319.441 322.867C325.058 321.276 330.53 321.175 335.792 322.454C289.223 359.359 249.985 491.089 244.614 637.897C239.244 784.705 269.567 896.68 314.38 907.779C308.913 912.095 303.334 915.122 297.717 916.712C244.161 931.873 205.602 811.218 211.6 647.243Z" fill="url(#paint9_linear_379_15026)"/>
<g filter="url(#filter8_f_379_15026)">
<path d="M215.269 646.205C221.267 482.229 265.885 338.028 319.441 322.867C325.058 321.276 330.53 321.175 335.792 322.454C289.223 359.359 246.317 492.127 240.946 638.935C235.576 785.744 269.567 896.68 314.38 907.779C308.913 912.095 303.334 915.122 297.717 916.712C244.161 931.873 209.27 810.18 215.269 646.205Z" fill="url(#paint10_linear_379_15026)"/>
</g>
<g filter="url(#filter9_f_379_15026)">
<path d="M217.102 645.685C223.101 481.71 269.739 331.903 323.295 316.742C328.912 315.152 334.383 315.05 339.646 316.329C293.077 353.234 244.482 492.647 239.112 639.455C233.741 786.263 274.404 894.682 319.217 905.78C313.75 910.096 308.171 913.123 302.555 914.713C248.998 929.874 211.104 809.66 217.102 645.685Z" fill="url(#paint11_linear_379_15026)"/>
</g>
<g filter="url(#filter10_f_379_15026)">
<path d="M217.102 645.685C223.101 481.71 269.739 331.903 323.295 316.742C328.912 315.152 334.383 315.05 339.646 316.329C293.077 353.234 244.482 492.647 239.112 639.455C233.741 786.263 274.404 894.682 319.217 905.78C313.75 910.096 308.171 913.123 302.555 914.713C248.998 929.874 211.104 809.66 217.102 645.685Z" fill="url(#paint12_linear_379_15026)"/>
</g>
<g filter="url(#filter11_f_379_15026)">
<path d="M217.102 645.685C223.101 481.71 269.739 331.903 323.295 316.742C328.912 315.152 334.383 315.05 339.646 316.329C293.077 353.234 244.482 492.647 239.112 639.455C233.741 786.263 274.404 894.682 319.217 905.78C313.75 910.096 308.171 913.123 302.555 914.713C248.998 929.874 211.104 809.66 217.102 645.685Z" fill="url(#paint13_linear_379_15026)"/>
</g>
<g filter="url(#filter12_f_379_15026)">
<path d="M227.574 632.339C233.572 468.364 269.739 331.903 323.295 316.742C328.912 315.152 334.383 315.05 339.646 316.329C293.077 353.234 238.673 490.188 233.151 641.142C226.232 830.282 274.404 894.682 319.217 905.78C313.75 910.096 308.171 913.123 302.555 914.713C248.998 929.874 221.575 796.314 227.574 632.339Z" fill="url(#paint14_linear_379_15026)"/>
</g>
<g filter="url(#filter13_f_379_15026)">
<path d="M227.572 632.343C233.57 468.368 264.051 310.55 317.607 295.387C323.224 293.796 340.49 324.837 345.752 326.116C299.183 363.022 238.671 490.192 233.15 641.146C226.231 830.286 280.392 876.755 325.205 887.852C325.747 873.037 314.498 935.558 308.881 937.148C255.325 952.311 221.575 796.318 227.572 632.343Z" fill="url(#paint15_linear_379_15026)"/>
</g>
<g filter="url(#filter14_f_379_15026)">
<path d="M227.572 632.343C233.57 468.368 264.051 310.55 317.607 295.387C323.224 293.796 340.49 324.837 345.752 326.116C299.183 363.022 238.671 490.192 233.15 641.146C226.231 830.286 280.392 876.755 325.205 887.852C325.747 873.037 314.498 935.558 308.881 937.148C255.325 952.311 221.575 796.318 227.572 632.343Z" fill="url(#paint16_linear_379_15026)"/>
</g>
<g filter="url(#filter15_f_379_15026)">
<path d="M227.572 632.343C233.57 468.368 264.051 310.55 317.607 295.387C323.224 293.796 340.49 324.837 345.752 326.116C299.183 363.022 238.671 490.192 233.15 641.146C226.231 830.286 280.392 876.755 325.205 887.852C325.747 873.037 314.498 935.558 308.881 937.148C255.325 952.311 221.575 796.318 227.572 632.343Z" fill="url(#paint17_linear_379_15026)"/>
</g>
<defs>
<filter id="filter0_f_379_15026" x="275.484" y="315.469" width="780.818" height="585.439" filterUnits="userSpaceOnUse" color-interpolation-filters="sRGB">
<feFlood flood-opacity="0" result="BackgroundImageFix"/>
<feBlend mode="normal" in="SourceGraphic" in2="BackgroundImageFix" result="shape"/>
<feGaussianBlur stdDeviation="7.26216" result="effect1_foregroundBlur_379_15026"/>
</filter>
<filter id="filter1_f_379_15026" x="245.553" y="276.719" width="845.36" height="646.79" filterUnits="userSpaceOnUse" color-interpolation-filters="sRGB">
<feFlood flood-opacity="0" result="BackgroundImageFix"/>
<feBlend mode="normal" in="SourceGraphic" in2="BackgroundImageFix" result="shape"/>
<feGaussianBlur stdDeviation="21.7865" result="effect1_foregroundBlur_379_15026"/>
</filter>
<filter id="filter2_f_379_15026" x="226.187" y="257.353" width="884.091" height="685.522" filterUnits="userSpaceOnUse" color-interpolation-filters="sRGB">
<feFlood flood-opacity="0" result="BackgroundImageFix"/>
<feBlend mode="normal" in="SourceGraphic" in2="BackgroundImageFix" result="shape"/>
<feGaussianBlur stdDeviation="31.4693" result="effect1_foregroundBlur_379_15026"/>
</filter>
<filter id="filter3_f_379_15026" x="226.187" y="257.353" width="884.091" height="685.522" filterUnits="userSpaceOnUse" color-interpolation-filters="sRGB">
<feFlood flood-opacity="0" result="BackgroundImageFix"/>
<feBlend mode="normal" in="SourceGraphic" in2="BackgroundImageFix" result="shape"/>
<feGaussianBlur stdDeviation="31.4693" result="effect1_foregroundBlur_379_15026"/>
</filter>
<filter id="filter4_f_379_15026" x="139.112" y="170.207" width="1058.31" height="854.491" filterUnits="userSpaceOnUse" color-interpolation-filters="sRGB">
<feFlood flood-opacity="0" result="BackgroundImageFix"/>
<feBlend mode="normal" in="SourceGraphic" in2="BackgroundImageFix" result="shape"/>
<feGaussianBlur stdDeviation="75.0423" result="effect1_foregroundBlur_379_15026"/>
</filter>
<filter id="filter5_f_379_15026" x="164.112" y="228.391" width="998.177" height="746.196" filterUnits="userSpaceOnUse" color-interpolation-filters="sRGB">
<feFlood flood-opacity="0" result="BackgroundImageFix"/>
<feBlend mode="normal" in="SourceGraphic" in2="BackgroundImageFix" result="shape"/>
<feGaussianBlur stdDeviation="45.9937" result="effect1_foregroundBlur_379_15026"/>
</filter>
<filter id="filter6_f_379_15026" x="57.6002" y="121.879" width="1211.2" height="959.219" filterUnits="userSpaceOnUse" color-interpolation-filters="sRGB">
<feFlood flood-opacity="0" result="BackgroundImageFix"/>
<feBlend mode="normal" in="SourceGraphic" in2="BackgroundImageFix" result="shape"/>
<feGaussianBlur stdDeviation="99.2495" result="effect1_foregroundBlur_379_15026"/>
</filter>
<filter id="filter7_f_379_15026" x="-39.2286" y="25.0502" width="1404.86" height="1152.88" filterUnits="userSpaceOnUse" color-interpolation-filters="sRGB">
<feFlood flood-opacity="0" result="BackgroundImageFix"/>
<feBlend mode="normal" in="SourceGraphic" in2="BackgroundImageFix" result="shape"/>
<feGaussianBlur stdDeviation="147.664" result="effect1_foregroundBlur_379_15026"/>
</filter>
<filter id="filter8_f_379_15026" x="200.075" y="307.051" width="150.241" height="625.461" filterUnits="userSpaceOnUse" color-interpolation-filters="sRGB">
<feFlood flood-opacity="0" result="BackgroundImageFix"/>
<feBlend mode="normal" in="SourceGraphic" in2="BackgroundImageFix" result="shape"/>
<feGaussianBlur stdDeviation="7.26216" result="effect1_foregroundBlur_379_15026"/>
</filter>
<filter id="filter9_f_379_15026" x="172.905" y="271.878" width="210.314" height="687.698" filterUnits="userSpaceOnUse" color-interpolation-filters="sRGB">
<feFlood flood-opacity="0" result="BackgroundImageFix"/>
<feBlend mode="normal" in="SourceGraphic" in2="BackgroundImageFix" result="shape"/>
<feGaussianBlur stdDeviation="21.7865" result="effect1_foregroundBlur_379_15026"/>
</filter>
<filter id="filter10_f_379_15026" x="153.539" y="252.512" width="249.045" height="726.43" filterUnits="userSpaceOnUse" color-interpolation-filters="sRGB">
<feFlood flood-opacity="0" result="BackgroundImageFix"/>
<feBlend mode="normal" in="SourceGraphic" in2="BackgroundImageFix" result="shape"/>
<feGaussianBlur stdDeviation="31.4693" result="effect1_foregroundBlur_379_15026"/>
</filter>
<filter id="filter11_f_379_15026" x="153.539" y="252.512" width="249.045" height="726.43" filterUnits="userSpaceOnUse" color-interpolation-filters="sRGB">
<feFlood flood-opacity="0" result="BackgroundImageFix"/>
<feBlend mode="normal" in="SourceGraphic" in2="BackgroundImageFix" result="shape"/>
<feGaussianBlur stdDeviation="31.4693" result="effect1_foregroundBlur_379_15026"/>
</filter>
<filter id="filter12_f_379_15026" x="76.6762" y="165.366" width="413.054" height="900.607" filterUnits="userSpaceOnUse" color-interpolation-filters="sRGB">
<feFlood flood-opacity="0" result="BackgroundImageFix"/>
<feBlend mode="normal" in="SourceGraphic" in2="BackgroundImageFix" result="shape"/>
<feGaussianBlur stdDeviation="75.0423" result="effect1_foregroundBlur_379_15026"/>
</filter>
<filter id="filter13_f_379_15026" x="134.897" y="203.34" width="302.842" height="826.817" filterUnits="userSpaceOnUse" color-interpolation-filters="sRGB">
<feFlood flood-opacity="0" result="BackgroundImageFix"/>
<feBlend mode="normal" in="SourceGraphic" in2="BackgroundImageFix" result="shape"/>
<feGaussianBlur stdDeviation="45.9937" result="effect1_foregroundBlur_379_15026"/>
</filter>
<filter id="filter14_f_379_15026" x="28.3858" y="96.8287" width="515.865" height="1039.84" filterUnits="userSpaceOnUse" color-interpolation-filters="sRGB">
<feFlood flood-opacity="0" result="BackgroundImageFix"/>
<feBlend mode="normal" in="SourceGraphic" in2="BackgroundImageFix" result="shape"/>
<feGaussianBlur stdDeviation="99.2495" result="effect1_foregroundBlur_379_15026"/>
</filter>
<filter id="filter15_f_379_15026" x="-68.4429" y="-6.10352e-05" width="709.523" height="1233.5" filterUnits="userSpaceOnUse" color-interpolation-filters="sRGB">
<feFlood flood-opacity="0" result="BackgroundImageFix"/>
<feBlend mode="normal" in="SourceGraphic" in2="BackgroundImageFix" result="shape"/>
<feGaussianBlur stdDeviation="147.664" result="effect1_foregroundBlur_379_15026"/>
</filter>
<linearGradient id="paint0_linear_379_15026" x1="972.322" y1="908.841" x2="325.689" y2="335.03" gradientUnits="userSpaceOnUse">
<stop stop-color="#CFFF65"/>
<stop offset="1" stop-color="#86FF22"/>
</linearGradient>
<linearGradient id="paint1_linear_379_15026" x1="974.732" y1="906.124" x2="328.099" y2="332.314" gradientUnits="userSpaceOnUse">
<stop stop-color="#CFFF65"/>
<stop offset="1" stop-color="#86FF22"/>
</linearGradient>
<linearGradient id="paint2_linear_379_15026" x1="978.336" y1="900.667" x2="326.857" y2="322.556" gradientUnits="userSpaceOnUse">
<stop stop-color="#CFFF65"/>
<stop offset="1" stop-color="#86FF22"/>
</linearGradient>
<linearGradient id="paint3_linear_379_15026" x1="978.336" y1="900.667" x2="326.857" y2="322.556" gradientUnits="userSpaceOnUse">
<stop stop-color="#CFFF65"/>
<stop offset="1" stop-color="#86FF22"/>
</linearGradient>
<linearGradient id="paint4_linear_379_15026" x1="978.336" y1="900.667" x2="326.857" y2="322.556" gradientUnits="userSpaceOnUse">
<stop stop-color="#CFFF65"/>
<stop offset="1" stop-color="#86FF22"/>
</linearGradient>
<linearGradient id="paint5_linear_379_15026" x1="984.965" y1="893.197" x2="333.486" y2="315.086" gradientUnits="userSpaceOnUse">
<stop stop-color="#CFFF65"/>
<stop offset="1" stop-color="#86FF22"/>
</linearGradient>
<linearGradient id="paint6_linear_379_15026" x1="1017.92" y1="909.75" x2="314.522" y2="285.556" gradientUnits="userSpaceOnUse">
<stop stop-color="#CFFF65"/>
<stop offset="1" stop-color="#86FF22"/>
</linearGradient>
<linearGradient id="paint7_linear_379_15026" x1="1017.92" y1="909.75" x2="314.522" y2="285.556" gradientUnits="userSpaceOnUse">
<stop stop-color="#CFFF65"/>
<stop offset="1" stop-color="#86FF22"/>
</linearGradient>
<linearGradient id="paint8_linear_379_15026" x1="1017.92" y1="909.75" x2="314.522" y2="285.556" gradientUnits="userSpaceOnUse">
<stop stop-color="#CFFF65"/>
<stop offset="1" stop-color="#86FF22"/>
</linearGradient>
<linearGradient id="paint9_linear_379_15026" x1="257.481" y1="928.102" x2="103.454" y2="384.01" gradientUnits="userSpaceOnUse">
<stop stop-color="#CFFF65"/>
<stop offset="1" stop-color="#86FF22"/>
</linearGradient>
<linearGradient id="paint10_linear_379_15026" x1="259.315" y1="927.583" x2="105.288" y2="383.491" gradientUnits="userSpaceOnUse">
<stop stop-color="#CFFF65"/>
<stop offset="1" stop-color="#86FF22"/>
</linearGradient>
<linearGradient id="paint11_linear_379_15026" x1="262.663" y1="926.006" x2="107.481" y2="377.837" gradientUnits="userSpaceOnUse">
<stop stop-color="#CFFF65"/>
<stop offset="1" stop-color="#86FF22"/>
</linearGradient>
<linearGradient id="paint12_linear_379_15026" x1="262.663" y1="926.006" x2="107.481" y2="377.837" gradientUnits="userSpaceOnUse">
<stop stop-color="#CFFF65"/>
<stop offset="1" stop-color="#86FF22"/>
</linearGradient>
<linearGradient id="paint13_linear_379_15026" x1="262.663" y1="926.006" x2="107.481" y2="377.837" gradientUnits="userSpaceOnUse">
<stop stop-color="#CFFF65"/>
<stop offset="1" stop-color="#86FF22"/>
</linearGradient>
<linearGradient id="paint14_linear_379_15026" x1="267.706" y1="924.578" x2="112.525" y2="376.409" gradientUnits="userSpaceOnUse">
<stop stop-color="#CFFF65"/>
<stop offset="1" stop-color="#86FF22"/>
</linearGradient>
<linearGradient id="paint15_linear_379_15026" x1="269.505" y1="948.297" x2="101.939" y2="356.447" gradientUnits="userSpaceOnUse">
<stop stop-color="#CFFF65"/>
<stop offset="1" stop-color="#86FF22"/>
</linearGradient>
<linearGradient id="paint16_linear_379_15026" x1="269.505" y1="948.297" x2="101.939" y2="356.447" gradientUnits="userSpaceOnUse">
<stop stop-color="#CFFF65"/>
<stop offset="1" stop-color="#86FF22"/>
</linearGradient>
<linearGradient id="paint17_linear_379_15026" x1="269.505" y1="948.297" x2="101.939" y2="356.447" gradientUnits="userSpaceOnUse">
<stop stop-color="#CFFF65"/>
<stop offset="1" stop-color="#86FF22"/>
</linearGradient>
</defs>
</svg>
