<svg width="1280" height="1573" viewBox="0 0 1280 1573" fill="none" xmlns="http://www.w3.org/2000/svg">
<path d="M699.439 871.658C204.351 865.591 -229.207 722.256 -268.86 551.538C-273.019 533.633 -272.694 516.074 -268.22 499.076C-162.016 645.615 231.739 760.989 674.996 766.42C1118.25 771.852 1460.31 665.494 1499.05 520.731C1511.47 537.936 1519.97 555.603 1524.13 573.508C1563.79 744.226 1194.53 877.724 699.439 871.658Z" fill="url(#paint0_linear_157_14484)"/>
<g filter="url(#filter0_f_157_14484)">
<path d="M696.723 859.965C201.635 853.898 -229.207 722.256 -268.86 551.538C-273.019 533.633 -272.694 516.074 -268.22 499.076C-162.016 645.615 234.455 772.682 677.712 778.113C1120.97 783.545 1460.31 665.494 1499.05 520.731C1511.47 537.936 1519.97 555.603 1524.13 573.508C1563.79 744.226 1191.81 866.031 696.723 859.965Z" fill="url(#paint1_linear_157_14484)"/>
</g>
<g filter="url(#filter1_f_157_14484)">
<path d="M695.365 854.116C200.276 848.05 -247.281 710.373 -286.934 539.654C-291.093 521.749 -290.768 504.191 -286.294 487.193C-180.091 633.732 235.812 778.527 679.069 783.958C1122.33 789.389 1454.83 650.121 1493.56 505.359C1505.98 522.563 1514.49 540.23 1518.65 558.135C1558.3 728.854 1190.45 860.183 695.365 854.116Z" fill="url(#paint2_linear_157_14484)"/>
</g>
<g filter="url(#filter2_f_157_14484)">
<path d="M695.365 854.116C200.276 848.05 -247.281 710.373 -286.934 539.654C-291.093 521.749 -290.768 504.191 -286.294 487.193C-180.091 633.732 235.812 778.527 679.069 783.958C1122.33 789.389 1454.83 650.121 1493.56 505.359C1505.98 522.563 1514.49 540.23 1518.65 558.135C1558.3 728.854 1190.45 860.183 695.365 854.116Z" fill="url(#paint3_linear_157_14484)"/>
</g>
<g filter="url(#filter3_f_157_14484)">
<path d="M695.365 854.116C200.276 848.05 -247.281 710.373 -286.934 539.654C-291.093 521.749 -290.768 504.191 -286.294 487.193C-180.091 633.732 235.812 778.527 679.069 783.958C1122.33 789.389 1454.83 650.121 1493.56 505.359C1505.98 522.563 1514.49 540.23 1518.65 558.135C1558.3 728.854 1190.45 860.183 695.365 854.116Z" fill="url(#paint4_linear_157_14484)"/>
</g>
<g filter="url(#filter4_f_157_14484)">
<path d="M656.221 821.572C161.132 815.506 -247.281 710.373 -286.934 539.654C-291.093 521.749 -290.768 504.191 -286.294 487.193C-180.091 633.732 227.707 797.374 683.482 802.959C1254.55 809.957 1454.83 650.121 1493.56 505.359C1505.98 522.563 1514.49 540.23 1518.65 558.135C1558.3 728.854 1151.31 827.639 656.221 821.572Z" fill="url(#paint5_linear_157_14484)"/>
</g>
<g filter="url(#filter5_f_157_14484)">
<path d="M656.195 821.563C161.106 815.492 -312.534 730.324 -352.175 559.606C-356.332 541.701 -260.48 483.776 -256.004 466.779C-149.811 613.318 227.682 797.361 683.458 802.95C1254.53 809.953 1401.3 632.339 1440.05 487.577C1395.32 487.029 1583.05 518.116 1587.21 536.021C1626.85 706.739 1151.28 827.634 656.195 821.563Z" fill="url(#paint6_linear_157_14484)"/>
</g>
<g filter="url(#filter6_f_157_14484)">
<path d="M656.195 821.563C161.106 815.492 -312.534 730.324 -352.175 559.606C-356.332 541.701 -260.48 483.776 -256.004 466.779C-149.811 613.318 227.682 797.361 683.458 802.95C1254.53 809.953 1401.3 632.339 1440.05 487.577C1395.32 487.029 1583.05 518.116 1587.21 536.021C1626.85 706.739 1151.28 827.634 656.195 821.563Z" fill="url(#paint7_linear_157_14484)"/>
</g>
<g filter="url(#filter7_f_157_14484)">
<path d="M656.195 821.563C161.106 815.492 -312.534 730.324 -352.175 559.606C-356.332 541.701 -260.48 483.776 -256.004 466.779C-149.811 613.318 227.682 797.361 683.458 802.95C1254.53 809.953 1401.3 632.339 1440.05 487.577C1395.32 487.029 1583.05 518.116 1587.21 536.021C1626.85 706.739 1151.28 827.634 656.195 821.563Z" fill="url(#paint8_linear_157_14484)"/>
</g>
<defs>
<filter id="filter0_f_157_14484" x="-286.311" y="484.552" width="1827.87" height="390.154" filterUnits="userSpaceOnUse" color-interpolation-filters="sRGB">
<feFlood flood-opacity="0" result="BackgroundImageFix"/>
<feBlend mode="normal" in="SourceGraphic" in2="BackgroundImageFix" result="shape"/>
<feGaussianBlur stdDeviation="7.26216" result="effect1_foregroundBlur_157_14484"/>
</filter>
<filter id="filter1_f_157_14484" x="-333.434" y="443.62" width="1898.58" height="454.271" filterUnits="userSpaceOnUse" color-interpolation-filters="sRGB">
<feFlood flood-opacity="0" result="BackgroundImageFix"/>
<feBlend mode="normal" in="SourceGraphic" in2="BackgroundImageFix" result="shape"/>
<feGaussianBlur stdDeviation="21.7865" result="effect1_foregroundBlur_157_14484"/>
</filter>
<filter id="filter2_f_157_14484" x="-352.8" y="424.255" width="1937.31" height="493.003" filterUnits="userSpaceOnUse" color-interpolation-filters="sRGB">
<feFlood flood-opacity="0" result="BackgroundImageFix"/>
<feBlend mode="normal" in="SourceGraphic" in2="BackgroundImageFix" result="shape"/>
<feGaussianBlur stdDeviation="31.4693" result="effect1_foregroundBlur_157_14484"/>
</filter>
<filter id="filter3_f_157_14484" x="-352.8" y="424.255" width="1937.31" height="493.003" filterUnits="userSpaceOnUse" color-interpolation-filters="sRGB">
<feFlood flood-opacity="0" result="BackgroundImageFix"/>
<feBlend mode="normal" in="SourceGraphic" in2="BackgroundImageFix" result="shape"/>
<feGaussianBlur stdDeviation="31.4693" result="effect1_foregroundBlur_157_14484"/>
</filter>
<filter id="filter4_f_157_14484" x="-439.946" y="337.109" width="2111.35" height="634.812" filterUnits="userSpaceOnUse" color-interpolation-filters="sRGB">
<feFlood flood-opacity="0" result="BackgroundImageFix"/>
<feBlend mode="normal" in="SourceGraphic" in2="BackgroundImageFix" result="shape"/>
<feGaussianBlur stdDeviation="75.0423" result="effect1_foregroundBlur_157_14484"/>
</filter>
<filter id="filter5_f_157_14484" x="-444.294" y="374.791" width="2125.8" height="538.978" filterUnits="userSpaceOnUse" color-interpolation-filters="sRGB">
<feFlood flood-opacity="0" result="BackgroundImageFix"/>
<feBlend mode="normal" in="SourceGraphic" in2="BackgroundImageFix" result="shape"/>
<feGaussianBlur stdDeviation="45.9937" result="effect1_foregroundBlur_157_14484"/>
</filter>
<filter id="filter6_f_157_14484" x="-550.806" y="268.28" width="2338.83" height="752.001" filterUnits="userSpaceOnUse" color-interpolation-filters="sRGB">
<feFlood flood-opacity="0" result="BackgroundImageFix"/>
<feBlend mode="normal" in="SourceGraphic" in2="BackgroundImageFix" result="shape"/>
<feGaussianBlur stdDeviation="99.2495" result="effect1_foregroundBlur_157_14484"/>
</filter>
<filter id="filter7_f_157_14484" x="-647.634" y="171.451" width="2532.48" height="945.659" filterUnits="userSpaceOnUse" color-interpolation-filters="sRGB">
<feFlood flood-opacity="0" result="BackgroundImageFix"/>
<feBlend mode="normal" in="SourceGraphic" in2="BackgroundImageFix" result="shape"/>
<feGaussianBlur stdDeviation="147.664" result="effect1_foregroundBlur_157_14484"/>
</filter>
<linearGradient id="paint0_linear_157_14484" x1="1553.92" y1="701.766" x2="-142.447" y2="1095.78" gradientUnits="userSpaceOnUse">
<stop stop-color="#CFFF65"/>
<stop offset="1" stop-color="#86FF22"/>
</linearGradient>
<linearGradient id="paint1_linear_157_14484" x1="1552.56" y1="695.919" x2="-143.805" y2="1089.94" gradientUnits="userSpaceOnUse">
<stop stop-color="#CFFF65"/>
<stop offset="1" stop-color="#86FF22"/>
</linearGradient>
<linearGradient id="paint2_linear_157_14484" x1="1548.18" y1="685.297" x2="-160.9" y2="1082.27" gradientUnits="userSpaceOnUse">
<stop stop-color="#CFFF65"/>
<stop offset="1" stop-color="#86FF22"/>
</linearGradient>
<linearGradient id="paint3_linear_157_14484" x1="1548.18" y1="685.297" x2="-160.9" y2="1082.27" gradientUnits="userSpaceOnUse">
<stop stop-color="#CFFF65"/>
<stop offset="1" stop-color="#86FF22"/>
</linearGradient>
<linearGradient id="paint4_linear_157_14484" x1="1548.18" y1="685.297" x2="-160.9" y2="1082.27" gradientUnits="userSpaceOnUse">
<stop stop-color="#CFFF65"/>
<stop offset="1" stop-color="#86FF22"/>
</linearGradient>
<linearGradient id="paint5_linear_157_14484" x1="1544.45" y1="669.219" x2="-164.635" y2="1066.19" gradientUnits="userSpaceOnUse">
<stop stop-color="#CFFF65"/>
<stop offset="1" stop-color="#86FF22"/>
</linearGradient>
<linearGradient id="paint6_linear_157_14484" x1="1616.35" y1="661.538" x2="-229.011" y2="1090.03" gradientUnits="userSpaceOnUse">
<stop stop-color="#CFFF65"/>
<stop offset="1" stop-color="#86FF22"/>
</linearGradient>
<linearGradient id="paint7_linear_157_14484" x1="1616.35" y1="661.538" x2="-229.011" y2="1090.03" gradientUnits="userSpaceOnUse">
<stop stop-color="#CFFF65"/>
<stop offset="1" stop-color="#86FF22"/>
</linearGradient>
<linearGradient id="paint8_linear_157_14484" x1="1616.35" y1="661.538" x2="-229.011" y2="1090.03" gradientUnits="userSpaceOnUse">
<stop stop-color="#CFFF65"/>
<stop offset="1" stop-color="#86FF22"/>
</linearGradient>
</defs>
</svg>
